<svg width="16" height="17" viewBox="0 0 16 17" fill="none" xmlns="http://www.w3.org/2000/svg">
<path d="M12.753 9.49999L10.273 11.794C9.877 12.184 9.877 12.817 10.273 13.208C10.668 13.598 11.31 13.598 11.705 13.208L15.555 9.56099C15.843 9.27799 16 8.90299 16 8.49999C16 8.09999 15.842 7.72199 15.556 7.43999L11.706 3.79299C11.31 3.40299 10.668 3.40299 10.272 3.79299C9.876 4.18299 9.877 4.81599 10.272 5.20699L12.752 7.49999H1C0.447 7.49999 0 7.94599 0 8.49999C0 9.04999 0.448 9.49999 1 9.49999H12.753Z" fill="#FFA012"/>
</svg>
