<svg width="16" height="11" viewBox="0 0 16 11" fill="none" xmlns="http://www.w3.org/2000/svg">
<path d="M3.247 6.49999L5.727 8.79399C6.123 9.18399 6.123 9.81699 5.727 10.208C5.332 10.598 4.69 10.598 4.295 10.208L0.445 6.56099C0.157 6.27799 0 5.90299 0 5.49999C0 5.09999 0.158 4.72199 0.444 4.43999L4.294 0.792988C4.69 0.402988 5.332 0.402988 5.728 0.792988C6.124 1.18299 6.123 1.81599 5.728 2.20699L3.248 4.49999H15C15.553 4.49999 16 4.94599 16 5.49999C16 6.04999 15.552 6.49999 15 6.49999H3.247Z" fill="#FFA012"/>
</svg>
