<svg width="50" height="50" viewBox="0 0 50 50" fill="none" xmlns="http://www.w3.org/2000/svg">
<circle cx="25" cy="25" r="25" fill="#FFA012"/>
<path d="M15.5781 37V11.4062H23.4531C25.7031 11.4062 27.7129 11.916 29.4824 12.9355C31.2637 13.9434 32.6523 15.3848 33.6484 17.2598C34.6445 19.123 35.1426 21.2441 35.1426 23.623V24.8008C35.1426 27.1797 34.6504 29.2949 33.666 31.1465C32.6934 32.998 31.3164 34.4336 29.5352 35.4531C27.7539 36.4727 25.7441 36.9883 23.5059 37H15.5781ZM20.8516 15.6777V32.7637H23.4004C25.4629 32.7637 27.0391 32.0898 28.1289 30.7422C29.2188 29.3945 29.7754 27.4668 29.7988 24.959V23.6055C29.7988 21.0039 29.2598 19.0352 28.1816 17.6992C27.1035 16.3516 25.5273 15.6777 23.4531 15.6777H20.8516Z" fill="white"/>
</svg>
