<svg width="2163" height="283" viewBox="0 0 2163 283" fill="none" xmlns="http://www.w3.org/2000/svg">
<path d="M0 1V283H1268.76C1220.47 234.296 784.472 209.045 339.471 191.377C132.183 183.148 3.90045 63.9339 0 1Z" fill="#FF1405" fill-opacity="0.8"/>
<path d="M0 1V283H1268.76C1220.47 234.296 784.472 209.045 339.471 191.377C132.183 183.148 3.90045 63.9339 0 1Z" fill="url(#paint0_linear)" fill-opacity="0.8"/>
<path d="M0 70V283H1195.66C1150.15 246.213 954.321 176.636 535.079 192.623C115.838 208.609 3.67572 117.535 0 70Z" fill="#FFED8E" fill-opacity="0.5"/>
<path d="M0 70V283H1195.66C1150.15 246.213 954.321 176.636 535.079 192.623C115.838 208.609 3.67572 117.535 0 70Z" fill="url(#paint1_linear)" fill-opacity="0.5"/>
<path d="M869.448 128.462C433.954 77.2663 296.621 216.274 118.164 282.259H2163V9C2163 9 1846.93 18.3175 1633.22 91.9166C1419.51 165.516 1413.82 192.458 869.448 128.462Z" fill="#FFED8E" fill-opacity="0.8"/>
<path d="M869.448 128.462C433.954 77.2663 296.621 216.274 118.164 282.259H2163V9C2163 9 1846.93 18.3175 1633.22 91.9166C1419.51 165.516 1413.82 192.458 869.448 128.462Z" fill="url(#paint2_linear)" fill-opacity="0.7"/>
<path d="M755.66 160.025C317.629 119.089 179.497 230.238 0 283H2162.83V70.7369C2162.83 70.7369 1738.83 71.9545 1523.88 130.804C1308.92 189.653 1303.2 211.195 755.66 160.025Z" fill="#FFA012"/>
<path d="M755.66 160.025C317.629 119.089 179.497 230.238 0 283H2162.83V70.7369C2162.83 70.7369 1738.83 71.9545 1523.88 130.804C1308.92 189.653 1303.2 211.195 755.66 160.025Z" fill="url(#paint3_linear)" fill-opacity="0.5"/>
<g filter="url(#filter0_d)">
<path d="M185.097 229.254C119.303 229.254 121.188 149.654 131.736 110.869H236.596C245.903 148.075 251.798 229.254 185.097 229.254Z" fill="white"/>
</g>
<g filter="url(#filter1_d)">
<ellipse cx="184.195" cy="111.556" rx="52.8245" ry="11.2421" fill="white"/>
</g>
<ellipse cx="184.195" cy="111.555" rx="42.4328" ry="8.64775" fill="#805E1D"/>
<path d="M187.719 103.19C199.934 89.9143 183.576 41.8862 168.49 15.2935C164.679 42.0903 162.521 82.9079 165.986 94.9316C169.45 106.955 178.94 112.732 187.719 103.19Z" fill="#439441"/>
<path d="M173.38 104.492C161.548 90.7958 182.008 25.9558 198.827 0C201.357 26.866 200.236 85.2076 196.07 97.0689C191.904 108.93 181.885 114.336 173.38 104.492Z" fill="#336832"/>
<g filter="url(#filter2_d)">
<path d="M176.634 112.531C186.393 100.395 163.814 62.1327 145.548 41.5093C145.776 64.0633 149.612 98.0779 154.662 107.716C159.712 117.353 169.619 121.254 176.634 112.531Z" fill="#439441"/>
</g>
<path d="M189.332 114.296C178.789 102.328 200.964 62.4937 219.247 40.7827C219.764 63.748 216.916 98.5206 211.993 108.529C207.07 118.538 196.91 122.898 189.332 114.296Z" fill="#439441"/>
<g filter="url(#filter3_d)">
<path d="M175.602 115.576C164.383 106.313 178.803 67.3012 192.264 45.1528C195.973 65.7437 198.308 97.4396 195.271 107.149C192.234 116.858 183.666 122.234 175.602 115.576Z" fill="#6CA26B"/>
</g>
<g filter="url(#filter4_d)">
<path fill-rule="evenodd" clip-rule="evenodd" d="M1942.46 177L1878.61 49L2041.83 102.909L2014.51 139.125L2005.98 177V148.248L1987.2 156.75L1942.46 177Z" fill="#FFFAEC"/>
<path d="M2005.98 148.248V177L1987.2 156.75L2005.98 148.248Z" fill="#FFFAEC"/>
<path d="M1878.61 49L2005.98 148.248M1878.61 49L1942.46 177L1987.2 156.75M1878.61 49L2041.83 102.909L2014.51 139.125M1878.61 49L2014.51 139.125M2005.98 148.248V177M2005.98 148.248L1987.2 156.75M2014.51 139.125L2005.98 177M2005.98 177L1987.2 156.75" stroke="black" stroke-opacity="0.3"/>
</g>
<path d="M2028.31 182.5L2041.33 194" stroke="white"/>
<path d="M2050.84 200.5C2055.68 203.5 2065.77 211.2 2071.37 204" stroke="white"/>
<path d="M2080.96 197.071C2085.23 193.889 2092.5 185.725 2087.49 178.522" stroke="white"/>
<path d="M2084.39 174.832C2080.31 173.339 2071.74 173.21 2070.07 184.634" stroke="white"/>
<path d="M2083.24 206.369C2085.55 209.245 2096.15 208.643 2102.42 204.51" stroke="white"/>
<path d="M2068.93 191C2068.18 194.605 2068.98 202.513 2078.18 205.31" stroke="white"/>
<path d="M2126.95 202.999C2124.78 199.832 2117.94 195.399 2107.92 202.999" stroke="white"/>
<defs>
<filter id="filter0_d" x="116.175" y="104.869" width="136.041" height="138.385" filterUnits="userSpaceOnUse" color-interpolation-filters="sRGB">
<feFlood flood-opacity="0" result="BackgroundImageFix"/>
<feColorMatrix in="SourceAlpha" type="matrix" values="0 0 0 0 0 0 0 0 0 0 0 0 0 0 0 0 0 0 127 0"/>
<feOffset dy="4"/>
<feGaussianBlur stdDeviation="5"/>
<feColorMatrix type="matrix" values="0 0 0 0 0 0 0 0 0 0 0 0 0 0 0 0 0 0 0.25 0"/>
<feBlend mode="normal" in2="BackgroundImageFix" result="effect1_dropShadow"/>
<feBlend mode="normal" in="SourceGraphic" in2="effect1_dropShadow" result="shape"/>
</filter>
<filter id="filter1_d" x="121.371" y="94.3135" width="125.649" height="42.4841" filterUnits="userSpaceOnUse" color-interpolation-filters="sRGB">
<feFlood flood-opacity="0" result="BackgroundImageFix"/>
<feColorMatrix in="SourceAlpha" type="matrix" values="0 0 0 0 0 0 0 0 0 0 0 0 0 0 0 0 0 0 127 0"/>
<feOffset dy="4"/>
<feGaussianBlur stdDeviation="5"/>
<feColorMatrix type="matrix" values="0 0 0 0 0.725 0 0 0 0 0.725 0 0 0 0 0.725 0 0 0 0.05 0"/>
<feBlend mode="normal" in2="BackgroundImageFix" result="effect1_dropShadow"/>
<feBlend mode="normal" in="SourceGraphic" in2="effect1_dropShadow" result="shape"/>
</filter>
<filter id="filter2_d" x="135.548" y="32.5093" width="53.4404" height="95.8761" filterUnits="userSpaceOnUse" color-interpolation-filters="sRGB">
<feFlood flood-opacity="0" result="BackgroundImageFix"/>
<feColorMatrix in="SourceAlpha" type="matrix" values="0 0 0 0 0 0 0 0 0 0 0 0 0 0 0 0 0 0 127 0"/>
<feOffset dy="1"/>
<feGaussianBlur stdDeviation="5"/>
<feColorMatrix type="matrix" values="0 0 0 0 0 0 0 0 0 0 0 0 0 0 0 0 0 0 0.25 0"/>
<feBlend mode="normal" in2="BackgroundImageFix" result="effect1_dropShadow"/>
<feBlend mode="normal" in="SourceGraphic" in2="effect1_dropShadow" result="shape"/>
</filter>
<filter id="filter3_d" x="161.579" y="37.1528" width="45.0882" height="93.3752" filterUnits="userSpaceOnUse" color-interpolation-filters="sRGB">
<feFlood flood-opacity="0" result="BackgroundImageFix"/>
<feColorMatrix in="SourceAlpha" type="matrix" values="0 0 0 0 0 0 0 0 0 0 0 0 0 0 0 0 0 0 127 0"/>
<feOffset dy="2"/>
<feGaussianBlur stdDeviation="5"/>
<feColorMatrix type="matrix" values="0 0 0 0 0 0 0 0 0 0 0 0 0 0 0 0 0 0 0.25 0"/>
<feBlend mode="normal" in2="BackgroundImageFix" result="effect1_dropShadow"/>
<feBlend mode="normal" in="SourceGraphic" in2="effect1_dropShadow" result="shape"/>
</filter>
<filter id="filter4_d" x="1873.62" y="48.1484" width="173.029" height="137.887" filterUnits="userSpaceOnUse" color-interpolation-filters="sRGB">
<feFlood flood-opacity="0" result="BackgroundImageFix"/>
<feColorMatrix in="SourceAlpha" type="matrix" values="0 0 0 0 0 0 0 0 0 0 0 0 0 0 0 0 0 0 127 0"/>
<feOffset dy="4"/>
<feGaussianBlur stdDeviation="2"/>
<feColorMatrix type="matrix" values="0 0 0 0 0 0 0 0 0 0 0 0 0 0 0 0 0 0 0.1 0"/>
<feBlend mode="normal" in2="BackgroundImageFix" result="effect1_dropShadow"/>
<feBlend mode="normal" in="SourceGraphic" in2="effect1_dropShadow" result="shape"/>
</filter>
<linearGradient id="paint0_linear" x1="634.881" y1="-14.2059" x2="634.457" y2="283" gradientUnits="userSpaceOnUse">
<stop stop-color="#FEB446"/>
<stop offset="1" stop-color="white" stop-opacity="0"/>
</linearGradient>
<linearGradient id="paint1_linear" x1="91.6271" y1="343.916" x2="253.643" y2="58.7562" gradientUnits="userSpaceOnUse">
<stop stop-color="#FF7E55"/>
<stop offset="1" stop-color="#FEC955"/>
</linearGradient>
<linearGradient id="paint2_linear" x1="1451.51" y1="99.5" x2="1482.97" y2="268.016" gradientUnits="userSpaceOnUse">
<stop stop-color="#FCFF7A"/>
<stop offset="1" stop-color="white" stop-opacity="0"/>
</linearGradient>
<linearGradient id="paint3_linear" x1="1081.5" y1="306" x2="1081.5" y2="124" gradientUnits="userSpaceOnUse">
<stop offset="0.0433867" stop-color="#F81C1C"/>
<stop offset="0.895833" stop-color="#FFC750"/>
</linearGradient>
</defs>
</svg>
