<svg width="16" height="11" viewBox="0 0 16 11" fill="none" xmlns="http://www.w3.org/2000/svg">
<path d="M12.753 6.49999L10.273 8.79399C9.877 9.18399 9.877 9.81699 10.273 10.208C10.668 10.598 11.31 10.598 11.705 10.208L15.555 6.56099C15.843 6.27799 16 5.90299 16 5.49999C16 5.09999 15.842 4.72199 15.556 4.43999L11.706 0.792988C11.31 0.402988 10.668 0.402988 10.272 0.792988C9.876 1.18299 9.877 1.81599 10.272 2.20699L12.752 4.49999H1C0.447 4.49999 0 4.94599 0 5.49999C0 6.04999 0.448 6.49999 1 6.49999H12.753Z" fill="white"/>
</svg>
